<svg xmlns:xlink="http://www.w3.org/1999/xlink" xmlns="http://www.w3.org/2000/svg" width="196" height="40" viewBox="0 0 196 40" fill="none">
<g clip-path="url(#clip0)">
<path d="M49.3027 29.4961V11.9811H51.9421L57.9994 24.3876L64.0567 11.9811H66.6961V29.4961H63.9594V18.2695L58.5833 29.4961H57.4156L52.0516 18.2695V29.4961H49.3027Z" fill="white"/>
<path d="M75.0393 29.8732C74.0663 29.8732 73.2635 29.711 72.631 29.3866C71.9985 29.0623 71.4958 28.6487 71.1228 28.146C70.7498 27.6433 70.4741 27.1081 70.2957 26.5405C70.1173 25.9728 69.9997 25.4377 69.9429 24.9349C69.8943 24.4241 69.8699 24.0105 69.8699 23.6943V16.3599H72.8378V22.6847C72.8378 23.0902 72.8661 23.5483 72.9229 24.0592C72.9797 24.5619 73.1094 25.0484 73.3121 25.5188C73.523 25.981 73.8311 26.3621 74.2365 26.6621C74.6501 26.9621 75.2055 27.1121 75.9029 27.1121C76.2759 27.1121 76.6449 27.0513 77.0097 26.9297C77.3746 26.808 77.703 26.6013 77.995 26.3094C78.295 26.0093 78.5342 25.5998 78.7126 25.0809C78.891 24.5619 78.9802 23.9051 78.9802 23.1104L80.7195 23.8524C80.7195 24.9714 80.5006 25.985 80.0627 26.8932C79.6329 27.8014 78.9964 28.5271 78.1531 29.0704C77.3098 29.6056 76.2718 29.8732 75.0393 29.8732ZM79.3329 29.4961V25.4214H78.9802V16.3599H81.9237V29.4961H79.3329Z" fill="white"/>
<path d="M85.5842 29.4961V11.6162H88.5156V29.4961H85.5842Z" fill="white"/>
<path d="M99.8583 29.4961C98.9907 29.6583 98.1393 29.7272 97.304 29.7029C96.477 29.6867 95.735 29.5367 95.0782 29.2529C94.4214 28.9609 93.9227 28.5028 93.5821 27.8784C93.2821 27.3108 93.124 26.731 93.1077 26.1391C93.0915 25.5471 93.0834 24.8782 93.0834 24.1321V12.7109H96.0026V23.9619C96.0026 24.4889 96.0066 24.9511 96.0148 25.3485C96.031 25.7458 96.1161 26.0701 96.2702 26.3215C96.5621 26.808 97.0283 27.0797 97.6689 27.1365C98.3095 27.1932 99.0393 27.1608 99.8583 27.0392V29.4961ZM90.6994 18.6587V16.3599H99.8583V18.6587H90.6994Z" fill="white"/>
<path d="M102.926 14.3651V11.677H105.858V14.3651H102.926ZM102.926 29.4961V16.3599H105.858V29.4961H102.926Z" fill="white"/>
<path d="M110.644 29.4961V16.1531C110.644 15.8206 110.657 15.4557 110.681 15.0584C110.705 14.653 110.774 14.2516 110.888 13.8542C111.001 13.4569 111.208 13.0961 111.508 12.7717C111.881 12.3582 112.282 12.0744 112.712 11.9203C113.15 11.7581 113.58 11.6689 114.001 11.6527C114.423 11.6284 114.792 11.6162 115.108 11.6162H116.75V14.0002H115.23C114.67 14.0002 114.253 14.1421 113.977 14.4259C113.71 14.7016 113.576 15.0665 113.576 15.5206V29.4961H110.644ZM108.528 18.6587V16.3599H116.75V18.6587H108.528ZM119.305 14.3651V11.677H122.236V14.3651H119.305ZM119.305 29.4961V16.3599H122.236V29.4961H119.305Z" fill="white"/>
<path d="M134.979 29.4961V23.1713C134.979 22.7577 134.95 22.2996 134.894 21.7968C134.837 21.2941 134.703 20.8116 134.492 20.3494C134.29 19.8791 133.981 19.4939 133.568 19.1939C133.162 18.8939 132.611 18.7438 131.914 18.7438C131.541 18.7438 131.172 18.8047 130.807 18.9263C130.442 19.0479 130.109 19.2588 129.809 19.5588C129.518 19.8507 129.282 20.2561 129.104 20.7751C128.926 21.286 128.836 21.9428 128.836 22.7455L127.097 22.0036C127.097 20.8846 127.312 19.871 127.742 18.9628C128.18 18.0546 128.82 17.3329 129.663 16.7977C130.507 16.2544 131.545 15.9828 132.777 15.9828C133.75 15.9828 134.553 16.145 135.186 16.4693C135.818 16.7937 136.321 17.2072 136.694 17.71C137.067 18.2127 137.343 18.7479 137.521 19.3155C137.699 19.8831 137.813 20.4224 137.861 20.9332C137.918 21.436 137.947 21.8455 137.947 22.1617V29.4961H134.979ZM125.869 29.4961V16.3599H128.484V20.4345H128.836V29.4961H125.869Z" fill="white"/>
<path d="M144.794 29.861C143.845 29.861 143.042 29.6826 142.386 29.3258C141.729 28.9609 141.23 28.4785 140.89 27.8784C140.557 27.2784 140.391 26.6175 140.391 25.8958C140.391 25.2633 140.496 24.6957 140.707 24.193C140.918 23.6821 141.242 23.2442 141.68 22.8793C142.118 22.5063 142.686 22.2023 143.383 21.9671C143.91 21.7968 144.526 21.6427 145.232 21.5049C145.945 21.367 146.716 21.2414 147.543 21.1278C148.378 21.0062 149.25 20.8765 150.158 20.7386L149.112 21.3346C149.12 20.4264 148.917 19.7574 148.504 19.3277C148.09 18.8979 147.393 18.683 146.412 18.683C145.82 18.683 145.248 18.8209 144.697 19.0966C144.145 19.3723 143.76 19.8466 143.541 20.5197L140.865 19.6804C141.19 18.5695 141.806 17.6775 142.714 17.0045C143.63 16.3315 144.863 15.995 146.412 15.995C147.579 15.995 148.605 16.1855 149.489 16.5666C150.381 16.9477 151.042 17.5721 151.472 18.4398C151.707 18.902 151.849 19.3763 151.897 19.8629C151.946 20.3413 151.97 20.8643 151.97 21.4319V29.4961H149.404V26.6499L149.83 27.1121C149.238 28.0609 148.544 28.7582 147.75 29.2042C146.963 29.6421 145.978 29.861 144.794 29.861ZM145.378 27.5257C146.043 27.5257 146.61 27.4081 147.081 27.1729C147.551 26.9378 147.924 26.6499 148.2 26.3094C148.483 25.9688 148.674 25.6485 148.771 25.3485C148.925 24.9755 149.011 24.5497 149.027 24.0713C149.051 23.5848 149.063 23.1915 149.063 22.8915L149.963 23.1591C149.079 23.2969 148.321 23.4186 147.689 23.524C147.056 23.6294 146.513 23.7308 146.059 23.8281C145.605 23.9173 145.203 24.0186 144.855 24.1321C144.514 24.2538 144.226 24.3957 143.991 24.5579C143.756 24.72 143.574 24.9065 143.444 25.1174C143.322 25.3282 143.261 25.5755 143.261 25.8593C143.261 26.1837 143.342 26.4715 143.505 26.7229C143.667 26.9662 143.902 27.1608 144.21 27.3067C144.526 27.4527 144.916 27.5257 145.378 27.5257Z" fill="white"/>
<path d="M164.223 29.4961V23.1713C164.223 22.7577 164.194 22.2996 164.138 21.7968C164.081 21.2941 163.947 20.8116 163.736 20.3494C163.534 19.8791 163.225 19.4939 162.812 19.1939C162.406 18.8939 161.855 18.7438 161.158 18.7438C160.785 18.7438 160.416 18.8047 160.051 18.9263C159.686 19.0479 159.353 19.2588 159.053 19.5588C158.761 19.8507 158.526 20.2561 158.348 20.7751C158.17 21.286 158.08 21.9428 158.08 22.7455L156.341 22.0036C156.341 20.8846 156.556 19.871 156.986 18.9628C157.424 18.0546 158.064 17.3329 158.907 16.7977C159.751 16.2544 160.789 15.9828 162.021 15.9828C162.994 15.9828 163.797 16.145 164.43 16.4693C165.062 16.7937 165.565 17.2072 165.938 17.71C166.311 18.2127 166.586 18.7479 166.765 19.3155C166.943 19.8831 167.057 20.4224 167.105 20.9332C167.162 21.436 167.191 21.8455 167.191 22.1617V29.4961H164.223ZM155.113 29.4961V16.3599H157.728V20.4345H158.08V29.4961H155.113Z" fill="white"/>
<path d="M175.855 29.861C174.501 29.861 173.346 29.561 172.389 28.9609C171.432 28.3528 170.698 27.5257 170.187 26.4796C169.685 25.4336 169.429 24.2497 169.421 22.928C169.429 21.5819 169.693 20.3899 170.212 19.352C170.739 18.306 171.485 17.487 172.45 16.895C173.415 16.295 174.562 15.995 175.892 15.995C177.384 15.995 178.645 16.372 179.675 17.1261C180.713 17.8722 181.39 18.8939 181.706 20.1913L178.787 20.9819C178.56 20.2764 178.183 19.7291 177.655 19.3398C177.128 18.9425 176.528 18.7438 175.855 18.7438C175.093 18.7438 174.465 18.9263 173.97 19.2912C173.475 19.648 173.111 20.1426 172.875 20.7751C172.64 21.4076 172.523 22.1252 172.523 22.928C172.523 24.1767 172.802 25.1863 173.362 25.9566C173.921 26.727 174.753 27.1121 175.855 27.1121C176.634 27.1121 177.246 26.9337 177.692 26.5769C178.146 26.2202 178.487 25.7053 178.714 25.0322L181.706 25.7012C181.3 27.0392 180.591 28.069 179.577 28.7907C178.564 29.5042 177.323 29.861 175.855 29.861Z" fill="white"/>
<path d="M189.759 29.861C188.429 29.861 187.262 29.5732 186.256 28.9974C185.251 28.4217 184.464 27.623 183.896 26.6013C183.337 25.5796 183.057 24.4038 183.057 23.0739C183.057 21.6387 183.333 20.394 183.884 19.3398C184.436 18.2776 185.202 17.4545 186.183 16.8707C187.164 16.2869 188.299 15.995 189.589 15.995C190.951 15.995 192.107 16.3153 193.055 16.9559C194.012 17.5883 194.722 18.4844 195.184 19.6439C195.646 20.8035 195.82 22.1698 195.707 23.7429H192.8V22.6726C192.792 21.2454 192.54 20.2034 192.046 19.5466C191.551 18.8898 190.773 18.5614 189.71 18.5614C188.51 18.5614 187.618 18.9344 187.034 19.6804C186.451 20.4183 186.159 21.5008 186.159 22.928C186.159 24.2578 186.451 25.2876 187.034 26.0174C187.618 26.7472 188.47 27.1121 189.589 27.1121C190.31 27.1121 190.931 26.954 191.45 26.6378C191.977 26.3134 192.382 25.8472 192.666 25.239L195.561 26.1147C195.058 27.2986 194.28 28.219 193.226 28.8758C192.179 29.5326 191.024 29.861 189.759 29.861ZM185.234 23.7429V21.5292H194.272V23.7429H185.234Z" fill="white"/>
<path fill-rule="evenodd" clip-rule="evenodd" d="M19.6902 38.4801C29.299 38.4801 37.0885 30.6906 37.0885 21.0818C37.0885 11.473 29.299 3.68349 19.6902 3.68349C10.0814 3.68349 2.29188 11.473 2.29188 21.0818C2.29188 30.6906 10.0814 38.4801 19.6902 38.4801ZM19.6902 40.0005C30.1387 40.0005 38.6089 31.5303 38.6089 21.0818C38.6089 10.6333 30.1387 2.16309 19.6902 2.16309C9.24168 2.16309 0.771484 10.6333 0.771484 21.0818C0.771484 31.5303 9.24168 40.0005 19.6902 40.0005Z" fill="white"/>
<path fill-rule="evenodd" clip-rule="evenodd" d="M6.177 15.3364V31.6753H13.2812V11.2348L6.177 15.3364ZM16.1381 9.58536V31.6754H23.2423V5.48377L16.1381 9.58536ZM25.6363 4.10159V31.6755H32.7405V0L25.6363 4.10159Z" fill="white"/>
</g>
<defs>
<clipPath id="clip0">
<rect width="195.333" height="40" fill="white"/>
</clipPath>
</defs>
</svg>